<svg xmlns="http://www.w3.org/2000/svg" viewBox="0 0 112 96" fill="none">
  <defs>
    <linearGradient id="dress" x1="42" y1="20" x2="81" y2="86" gradientUnits="userSpaceOnUse"><stop stop-color="#e284ae"/><stop offset="1" stop-color="#a34079"/></linearGradient>
    <linearGradient id="bag" x1="9" y1="48" x2="48" y2="91" gradientUnits="userSpaceOnUse"><stop stop-color="#fff4df"/><stop offset="1" stop-color="#e6b577"/></linearGradient>
    <linearGradient id="small" x1="78" y1="53" x2="107" y2="89" gradientUnits="userSpaceOnUse"><stop stop-color="#b9b0ef"/><stop offset="1" stop-color="#7b67b2"/></linearGradient>
  </defs>
  <ellipse cx="57" cy="88" rx="49" ry="5" fill="#6a315f" opacity=".1"/>
  <circle cx="60" cy="44" r="37" fill="#f5d9e6" opacity=".55"/>
  <path d="M57 12c0-7 10-7 10-1 0 4-6 5-6 9l-23 9h46l-23-9" stroke="#ad7b43" stroke-width="2.2" stroke-linecap="round" stroke-linejoin="round"/>
  <path d="m46 25-11 6 6 19 9-5-4 13-14 23c15 8 39 8 56 0L74 58l-4-13 9 5 7-19-12-6-7 5H54z" fill="url(#dress)"/>
  <path d="m53 27 3 7h9l4-7" stroke="#8f3568" stroke-width="2"/>
  <path d="M49 54h23l2 5H47z" fill="#f3ce98"/>
  <rect x="57" y="53" width="9" height="7" rx="1.5" stroke="#b68c50" stroke-width="1.5"/>
  <path d="m53 61-8 19m16-19v22m8-22 9 19" stroke="#f4bfd6" stroke-width="1.5" opacity=".6"/>
  <path d="m11 51 29-3 8 37-33 4z" fill="url(#bag)"/>
  <path d="m15 89-4-38-5 5 4 28z" fill="#c39158"/>
  <path d="m20 53-1-9c-1-10 13-12 15-2l1 9" stroke="#ad7947" stroke-width="2.5" stroke-linecap="round"/>
  <path d="m23 68 5-4 5 4-5 5z" fill="#f9ead0"/>
  <path d="m80 57 23-2 5 30-25 3z" fill="url(#small)"/>
  <path d="m86 58-1-6c-1-9 12-9 13-1l1 6" stroke="#65529d" stroke-width="2.2" stroke-linecap="round"/>
  <path d="m96 21 1.5 4.5 4.5 1.5-4.5 1.5L96 33l-1.5-4.5-4.5-1.5 4.5-1.5z" fill="#cda66b"/>
</svg>
